<svg xmlns="http://www.w3.org/2000/svg" xmlns:xlink="http://www.w3.org/1999/xlink" width="27.302" height="24.182" viewBox="0 0 27.302 24.182">
  <defs>
    <clipPath id="clip-path">
      <rect id="Rectangle_16" data-name="Rectangle 16" width="27.302" height="24.182" fill="#fff"/>
    </clipPath>
  </defs>
  <g id="instagram" clip-path="url(#clip-path)">
    <g id="_1161953_instagram_icon" data-name="1161953_instagram_icon" transform="translate(0.776 0.513)">
      <path id="Path_7" data-name="Path 7" d="M24.24,19.192A6.405,6.405,0,0,0,17.7,25.423a6.373,6.373,0,0,0,6.543,6.231,6.4,6.4,0,0,0,6.543-6.231A6.438,6.438,0,0,0,24.24,19.192Zm0,10.223a4,4,0,1,1,4.191-3.992A4.114,4.114,0,0,1,24.24,29.414Z" transform="translate(-11.564 -13.399)" fill="#fff"/>
      <ellipse id="Ellipse_6" data-name="Ellipse 6" cx="1.482" cy="1.412" rx="1.482" ry="1.412" transform="translate(17.993 4.235)" fill="#fff"/>
      <path id="Path_8" data-name="Path 8" d="M27.216,7.512a7.479,7.479,0,0,0-5.367-2H11.319c-4.447,0-7.412,2.823-7.412,7.059v9.979a6.831,6.831,0,0,0,2.147,5.209,7.675,7.675,0,0,0,5.316,1.9H21.8a7.766,7.766,0,0,0,5.367-1.9,6.794,6.794,0,0,0,2.1-5.16V12.575A6.8,6.8,0,0,0,27.216,7.512Zm-.2,15.091a4.643,4.643,0,0,1-1.482,3.554A5.443,5.443,0,0,1,21.8,27.422H11.37a5.443,5.443,0,0,1-3.731-1.266,4.762,4.762,0,0,1-1.38-3.6V12.575a4.724,4.724,0,0,1,1.38-3.554A5.354,5.354,0,0,1,11.37,7.755H21.9A5.243,5.243,0,0,1,25.631,9.07a4.89,4.89,0,0,1,1.38,3.5V22.6Z" transform="translate(-3.907 -5.516)" fill="#fff"/>
    </g>
  </g>
</svg>
