<svg xmlns="http://www.w3.org/2000/svg" xmlns:xlink="http://www.w3.org/1999/xlink" width="30" height="27" viewBox="0 0 30 27">
  <defs>
    <clipPath id="clip-path">
      <rect id="Rectangle_15" data-name="Rectangle 15" width="30" height="27" transform="translate(-0.121 -0.417)" fill="#fff"/>
    </clipPath>
  </defs>
  <g id="pinterest" transform="translate(0.121 0.417)" clip-path="url(#clip-path)">
    <g id="_2959754_discover_pinterest_icon" data-name="2959754_discover_pinterest_icon" transform="translate(0.817 -0.125)">
      <path id="Path_9" data-name="Path 9" d="M21.935,9.708c6.705,0,12.141,5.177,12.141,11.562S28.64,32.832,21.935,32.832,9.794,27.656,9.794,21.27,15.233,9.715,21.935,9.708m0-1.728C14.228,7.98,7.98,13.93,7.98,21.27s6.248,13.29,13.955,13.29S35.89,28.61,35.89,21.27,29.642,7.98,21.935,7.98Z" transform="translate(-7.98 -7.98)" fill="#fff"/>
      <path id="Path_10" data-name="Path 10" d="M21.31,31.664a6,6,0,0,1-3.07-5.074c0-3.314,2.473-8.128,9.378-8.128S36.1,23.924,36.1,26.41s-1.5,7.974-6.933,7.974c-2.69,0-3.452-1.449-3.452-1.449s-1.077,4.965-2.6,6.509c0,0-1.853.765-1.038-4.178.059-.356,1.767-6.525,1.767-6.525a5.968,5.968,0,0,1-.435-2.251c0-1.294,1.222-2.95,2.557-2.95A1.78,1.78,0,0,1,27.7,25.45c0,.712-1.222,4.117-1.222,4.893A1.99,1.99,0,0,0,28.653,32.2c1.521,0,4.323-1.473,4.323-5.606a5.485,5.485,0,0,0-5.526-5.781c-2.344,0-6.634,1.329-6.634,5.566a4.46,4.46,0,0,0,1.088,3.19A2.845,2.845,0,0,1,21.31,31.664Z" transform="translate(-13.216 -13.574)" fill="#fff"/>
    </g>
  </g>
</svg>
